# xmcd CD database file
#
# Track frame offsets:
#	182
#	16947
#	39227
#	63302
#	89940
#	111002
#	135280
#	156722
#
# Disc length: 2421 seconds
#
# Revision: 0
# Processed by: cddbd v1.4PL0 Copyright (c) Steve Scherf et al.
# Submitted via: CDex 1.50beta9
#
DISCID=65097308
DTITLE=Grupo Niche - Niche Con Cuerdas
DYEAR=1993
DGENRE=Salsa
TTITLE0=Perder Para Amar
TTITLE1=Benditas Seas
TTITLE2=Un Caso Social
TTITLE3=Me Huele A Matrimonio
TTITLE4=Pa' Que Esa Negra Caiga
TTITLE5=La Trampa
TTITLE6=Pa' Mi Negra Un Son
TTITLE7=Ese Dia
EXTD=YEAR: 1993
EXTT0=
EXTT1=
EXTT2=
EXTT3=
EXTT4=
EXTT5=
EXTT6=
EXTT7=
PLAYORDER=
